<?xml version="1.0" standalone="no"?><!DOCTYPE svg PUBLIC "-//W3C//DTD SVG 1.1//EN" "http://www.w3.org/Graphics/SVG/1.1/DTD/svg11.dtd"><svg t="1652025760782" class="icon" viewBox="0 0 1024 1024" version="1.1" xmlns="http://www.w3.org/2000/svg" p-id="7914" xmlns:xlink="http://www.w3.org/1999/xlink" width="16" height="16"><defs><style type="text/css"></style></defs><path d="M685.44 970.24H311.296a83.4304 83.4304 0 0 1-83.456-83.456v-177.536h541.0048v177.536a83.4048 83.4048 0 0 1-83.4048 83.456z" fill="#FF6B72" p-id="7915"></path><path d="M976.64 292.6848L821.8624 137.984a32 32 0 0 0-22.6304-9.3952h-88.6528c-10.752 0-20.7616 5.376-26.7008 14.3872a220.6208 220.6208 0 0 1-184.4736 99.2512c-74.368 0-143.36-37.12-184.4992-99.2512a32 32 0 0 0-26.7008-14.3872H203.264c-8.4992 0-16.6912 3.3792-22.656 9.3952L25.856 292.736a87.68 87.68 0 0 0 0 123.8528l63.5136 63.5136a87.7056 87.7056 0 0 0 106.4192 13.5168V881.408a121.0368 121.0368 0 0 0 120.9088 120.9088h365.312a121.0368 121.0368 0 0 0 120.9344-120.9088V491.3408a86.8352 86.8352 0 0 0 48.1792 14.4128 87.04 87.04 0 0 0 61.9264-25.6512l63.5136-63.5136a87.68 87.68 0 0 0 0.0512-123.904z m-45.3888 78.5408l-63.488 63.5136a23.3984 23.3984 0 0 1-33.2288 0l-41.0112-40.96a32 32 0 0 0-54.7072 22.656v464.9472a56.8576 56.8576 0 0 1-56.7808 56.8064h-365.312a56.8576 56.8576 0 0 1-56.832-56.8064V422.7328c0-10.624-5.2224-20.5312-13.9776-26.496l-1.536-1.0752a31.9488 31.9488 0 0 0-40.704 3.84l-35.7632 35.7376a23.552 23.552 0 0 1-33.2288 0l-63.488-63.488a23.5008 23.5008 0 0 1 0-33.2032l145.408-145.3056h55.04a284.5184 284.5184 0 0 0 227.7888 113.6128c90.0096 0 173.952-42.1376 227.7376-113.6128h58.7776l145.3056 145.3056a23.5008 23.5008 0 0 1 0 33.1776z" fill="#474A54" p-id="7916"></path><path d="M355.2256 533.376c-17.664 0-32.0512 14.3616-32.0512 32.0512v258.7392a32.0768 32.0768 0 0 0 64.1024 0V565.4272c0-17.664-14.336-32.0512-32.0512-32.0512z" fill="#474A54" p-id="7917"></path></svg>